# xmcd CD database file
#
# Track frame offsets:
#	150
#	15647
#	30437
#	45880
#	57497
#	75977
#	91885
#	106367
#	120452
#	138382
#	148945
#	164267
#	180370
#	207807
#	222748
#	236884
#	252823
#	267251
#	285896
#
# Disc length: 3996 seconds
#
# Revision: 0
# Processed by: cddbd v1.5PL3 Copyright (c) Steve Scherf et al.
# Submitted via: CDex 1.50beta10
#
DISCID=000f9a13
DTITLE=FRANK SINATRA - DUESTS
DYEAR=2004
DGENRE=Jazz
TTITLE0=FRANK SINATRA-DUESTS 1-LUTHER VANDROSS-THE LADAY IS TRAMP
TTITLE1=FRANK SINATRA-DUESTS 1-ARETHA FRANKLIN-WHAT NOW MY LOVE
TTITLE2=FRANK SINATRA-DUESTS 1-BARBRA STREISAND-I'VE GOT A CRUSH ON YOU
TTITLE3=FRANK SINATRA-DUESTS 1-JULIO IGLESIAS-SUMMER WIND
TTITLE4=FRANK SINATRA-DUESTS 1-CLORIA ESTEFAN-COME RAIN OR COME SHINE
TTITLE5=FRANK SINATRA-DUESTS 1-TONY BENNETT-NEW YORK,NEW YORK
TTITLE6=FRANK SINATRA-DUESTS 1-NATALIE COLE-THEY CAN'T TAKE THAT AWAY FROM ME
TTITLE7=FRANK SINATRA-DUESTS 1-CHARLES AZNAVOUR-YOU MAKE ME FEEL SO YOUNG
TTITLE8=FRANK SINATRA-DUESTS 1-CARLY SIMON-GUESS I'LL HANG MY TEARS OUT TO DRY
TTITLE9=FRANK SINATRA-DUESTS 1-LIZA MINNELLI-I'VE GOT THE WORLD ON A STRING
TTITLE10=FRANK SINATRA-DUESTS 1-ANITA BAKER-WITCHCRAFT
TTITLE11=FRANK SINATRA-DUESTS 1-BONO-I'VE GOT YOU UNDER MY SKIN
TTITLE12=FRANK SINATRA-DUESTS 1-KENNY G-ALL THE WAY
TTITLE13=FRANK SINATRA-DUESTS 2-GLADYS KNIGHT&STEVIE WONDER-FOR ONCE IN MY LIFE
TTITLE14=FRANK SINATRA-DUESTS 2-LUIS MIGUEL-COME FLY WITH ME
TTITLE15=FRANK SINATRA-DUESTS 2-PATTI LABELLE-BEWITCHED
TTITLE16=FRANK SINATRA-DUESTS 2-JON SECADA-THE BEST IS YET TO COME
TTITLE17=FRANK SINATRA-DUESTS 2-LINDA RONSTADT-MOONLIGHT IN VERMONT
TTITLE18=FRANK SINATRA-DUESTS 2-ANTONIO CARLOS JOBIM-FLY ME TO THE MOON
EXTD=YEAR: 2004
EXTT0=
EXTT1=
EXTT2=
EXTT3=
EXTT4=
EXTT5=
EXTT6=
EXTT7=
EXTT8=
EXTT9=
EXTT10=
EXTT11=
EXTT12=
EXTT13=
EXTT14=
EXTT15=
EXTT16=
EXTT17=
EXTT18=
PLAYORDER=
